<?xml version="1.0" encoding="utf-8"?>
<!-- Svg Vector Icons : http://www.onlinewebfonts.com/icon -->
<!DOCTYPE svg PUBLIC "-//W3C//DTD SVG 1.1//EN" "http://www.w3.org/Graphics/SVG/1.1/DTD/svg11.dtd">
<svg   fill="currentcolor" version="1.1" xmlns="http://www.w3.org/2000/svg" xmlns:xlink="http://www.w3.org/1999/xlink" x="0px" y="0px" viewBox="0 0 1000 1000" enable-background="new 0 0 1000 1000" xml:space="preserve">
<metadata> Svg Vector Icons : http://www.onlinewebfonts.com/icon </metadata>
<g><path d="M990,498.4c0,5.3-1.9,9.8-5.7,13.6L766.5,712.8c-6,5.3-12.7,6.4-19.8,3.4c-7.2-3.4-10.7-8.9-10.7-16.5v-127H28.2c-5.3,0-9.6-1.7-13.1-5.1c-3.4-3.4-5.1-7.7-5.1-13.1V445.6c0-5.3,1.7-9.6,5.1-13.1c3.4-3.4,7.7-5.1,13.1-5.1H736v-127c0-7.9,3.6-13.4,10.7-16.5c7.2-3,13.8-2.1,19.8,2.8l217.8,198.5C988.1,489,990,493.4,990,498.4L990,498.4z"/></g>
</svg>